<mxfile host="Electron" modified="2023-07-12T18:35:14.731Z" agent="Mozilla/5.0 (Macintosh; Intel Mac OS X 10_15_7) AppleWebKit/537.36 (KHTML, like Gecko) draw.io/21.6.1 Chrome/112.0.5615.204 Electron/24.6.1 Safari/537.36" etag="zw7RkHIeWTEfM5r5PRe6" version="21.6.1" type="device">
  <diagram name="Страница 1" id="yI9zd2pT9esUjkgYPhoz">
    <mxGraphModel dx="1592" dy="843" grid="1" gridSize="10" guides="1" tooltips="1" connect="1" arrows="1" fold="1" page="1" pageScale="4" pageWidth="827" pageHeight="1169" math="0" shadow="0">
      <root>
        <mxCell id="0" />
        <mxCell id="1" parent="0" />
        <mxCell id="9OwBvTJ7RTWJVoX8R5Mj-106" value="" style="rounded=1;whiteSpace=wrap;html=1;dashed=1;dashPattern=8 8;" vertex="1" parent="1">
          <mxGeometry x="180" y="10" width="1310" height="1730" as="geometry" />
        </mxCell>
        <mxCell id="V9B4uRtNzhAgs2MjrMtX-153" value="" style="group" parent="1" vertex="1" connectable="0">
          <mxGeometry x="40" y="580" width="120" height="30" as="geometry" />
        </mxCell>
        <mxCell id="V9B4uRtNzhAgs2MjrMtX-4" value="" style="endArrow=classic;html=1;rounded=0;" parent="V9B4uRtNzhAgs2MjrMtX-153" edge="1">
          <mxGeometry width="50" height="50" relative="1" as="geometry">
            <mxPoint y="29.5" as="sourcePoint" />
            <mxPoint x="120" y="29.5" as="targetPoint" />
            <Array as="points" />
          </mxGeometry>
        </mxCell>
        <mxCell id="V9B4uRtNzhAgs2MjrMtX-154" style="edgeStyle=orthogonalEdgeStyle;rounded=0;orthogonalLoop=1;jettySize=auto;html=1;exitX=0.5;exitY=1;exitDx=0;exitDy=0;" parent="1" edge="1">
          <mxGeometry relative="1" as="geometry">
            <mxPoint x="625" y="1230" as="sourcePoint" />
            <mxPoint x="625" y="1230" as="targetPoint" />
          </mxGeometry>
        </mxCell>
        <mxCell id="V9B4uRtNzhAgs2MjrMtX-6" value="HTTP запросы" style="text;html=1;strokeColor=none;fillColor=none;align=center;verticalAlign=middle;whiteSpace=wrap;rounded=0;" parent="1" vertex="1">
          <mxGeometry x="50" y="570" width="100" height="30" as="geometry" />
        </mxCell>
        <mxCell id="9OwBvTJ7RTWJVoX8R5Mj-94" value="" style="group" vertex="1" connectable="0" parent="1">
          <mxGeometry x="530" y="70" width="390" height="140" as="geometry" />
        </mxCell>
        <mxCell id="9OwBvTJ7RTWJVoX8R5Mj-2" value="" style="rounded=1;whiteSpace=wrap;html=1;dashed=1;" vertex="1" parent="9OwBvTJ7RTWJVoX8R5Mj-94">
          <mxGeometry width="390" height="140" as="geometry" />
        </mxCell>
        <mxCell id="9OwBvTJ7RTWJVoX8R5Mj-3" value="AuthenticationAndAuthorization" style="swimlane;" vertex="1" parent="9OwBvTJ7RTWJVoX8R5Mj-94">
          <mxGeometry x="20" y="15" width="240" height="110" as="geometry" />
        </mxCell>
        <mxCell id="9OwBvTJ7RTWJVoX8R5Mj-4" value="RegisterUser" style="rounded=1;whiteSpace=wrap;html=1;" vertex="1" parent="9OwBvTJ7RTWJVoX8R5Mj-3">
          <mxGeometry x="5" y="30" width="225" height="20" as="geometry" />
        </mxCell>
        <mxCell id="9OwBvTJ7RTWJVoX8R5Mj-5" value="Authentication" style="rounded=1;whiteSpace=wrap;html=1;" vertex="1" parent="9OwBvTJ7RTWJVoX8R5Mj-3">
          <mxGeometry x="5" y="55" width="225" height="20" as="geometry" />
        </mxCell>
        <mxCell id="9OwBvTJ7RTWJVoX8R5Mj-7" value="ChangeUserPassword" style="rounded=1;whiteSpace=wrap;html=1;" vertex="1" parent="9OwBvTJ7RTWJVoX8R5Mj-3">
          <mxGeometry x="5" y="80" width="225" height="20" as="geometry" />
        </mxCell>
        <mxCell id="9OwBvTJ7RTWJVoX8R5Mj-12" value="" style="endArrow=classic;html=1;rounded=0;" edge="1" parent="9OwBvTJ7RTWJVoX8R5Mj-94">
          <mxGeometry width="50" height="50" relative="1" as="geometry">
            <mxPoint x="300" y="80" as="sourcePoint" />
            <mxPoint x="270" y="80" as="targetPoint" />
          </mxGeometry>
        </mxCell>
        <mxCell id="9OwBvTJ7RTWJVoX8R5Mj-13" value="" style="shape=cylinder3;whiteSpace=wrap;html=1;boundedLbl=1;backgroundOutline=1;size=15;" vertex="1" parent="9OwBvTJ7RTWJVoX8R5Mj-94">
          <mxGeometry x="310" y="30" width="50" height="70" as="geometry" />
        </mxCell>
        <mxCell id="9OwBvTJ7RTWJVoX8R5Mj-14" value="MongoDB" style="text;html=1;strokeColor=none;fillColor=none;align=center;verticalAlign=middle;whiteSpace=wrap;rounded=0;" vertex="1" parent="9OwBvTJ7RTWJVoX8R5Mj-94">
          <mxGeometry x="305" y="95" width="60" height="30" as="geometry" />
        </mxCell>
        <mxCell id="9OwBvTJ7RTWJVoX8R5Mj-15" value="" style="endArrow=classic;html=1;rounded=0;" edge="1" parent="9OwBvTJ7RTWJVoX8R5Mj-94">
          <mxGeometry width="50" height="50" relative="1" as="geometry">
            <mxPoint x="270" y="64.5" as="sourcePoint" />
            <mxPoint x="300" y="64.5" as="targetPoint" />
            <Array as="points">
              <mxPoint x="280" y="64.5" />
            </Array>
          </mxGeometry>
        </mxCell>
        <mxCell id="9OwBvTJ7RTWJVoX8R5Mj-98" value="" style="group" vertex="1" connectable="0" parent="1">
          <mxGeometry x="510" y="260" width="410" height="200" as="geometry" />
        </mxCell>
        <mxCell id="9OwBvTJ7RTWJVoX8R5Mj-17" value="" style="rounded=1;whiteSpace=wrap;html=1;dashed=1;" vertex="1" parent="9OwBvTJ7RTWJVoX8R5Mj-98">
          <mxGeometry x="20" width="390" height="200" as="geometry" />
        </mxCell>
        <mxCell id="9OwBvTJ7RTWJVoX8R5Mj-24" value="UserFeed" style="rounded=1;whiteSpace=wrap;html=1;" vertex="1" parent="9OwBvTJ7RTWJVoX8R5Mj-98">
          <mxGeometry x="45" y="70" width="225" height="20" as="geometry" />
        </mxCell>
        <mxCell id="9OwBvTJ7RTWJVoX8R5Mj-25" value="SubscribeToOtherUsers" style="rounded=1;whiteSpace=wrap;html=1;" vertex="1" parent="9OwBvTJ7RTWJVoX8R5Mj-98">
          <mxGeometry x="45" y="100" width="225" height="20" as="geometry" />
        </mxCell>
        <mxCell id="9OwBvTJ7RTWJVoX8R5Mj-27" value="" style="endArrow=classic;html=1;rounded=0;" edge="1" parent="9OwBvTJ7RTWJVoX8R5Mj-98">
          <mxGeometry width="50" height="50" relative="1" as="geometry">
            <mxPoint x="330" y="105" as="sourcePoint" />
            <mxPoint x="300" y="105" as="targetPoint" />
          </mxGeometry>
        </mxCell>
        <mxCell id="9OwBvTJ7RTWJVoX8R5Mj-28" value="" style="shape=cylinder3;whiteSpace=wrap;html=1;boundedLbl=1;backgroundOutline=1;size=15;" vertex="1" parent="9OwBvTJ7RTWJVoX8R5Mj-98">
          <mxGeometry x="340" y="55" width="50" height="70" as="geometry" />
        </mxCell>
        <mxCell id="9OwBvTJ7RTWJVoX8R5Mj-29" value="MongoDB" style="text;html=1;strokeColor=none;fillColor=none;align=center;verticalAlign=middle;whiteSpace=wrap;rounded=0;" vertex="1" parent="9OwBvTJ7RTWJVoX8R5Mj-98">
          <mxGeometry x="335" y="120" width="60" height="30" as="geometry" />
        </mxCell>
        <mxCell id="9OwBvTJ7RTWJVoX8R5Mj-30" value="" style="endArrow=classic;html=1;rounded=0;" edge="1" parent="9OwBvTJ7RTWJVoX8R5Mj-98">
          <mxGeometry width="50" height="50" relative="1" as="geometry">
            <mxPoint x="300" y="89.5" as="sourcePoint" />
            <mxPoint x="330" y="89.5" as="targetPoint" />
            <Array as="points">
              <mxPoint x="310" y="89.5" />
            </Array>
          </mxGeometry>
        </mxCell>
        <mxCell id="9OwBvTJ7RTWJVoX8R5Mj-18" value="User" style="swimlane;container=0;" vertex="1" parent="9OwBvTJ7RTWJVoX8R5Mj-98">
          <mxGeometry x="40" y="10" width="240" height="180" as="geometry" />
        </mxCell>
        <mxCell id="9OwBvTJ7RTWJVoX8R5Mj-21" value="ShowUserDetails" style="rounded=1;whiteSpace=wrap;html=1;" vertex="1" parent="9OwBvTJ7RTWJVoX8R5Mj-98">
          <mxGeometry x="45" y="40" width="225" height="20" as="geometry" />
        </mxCell>
        <mxCell id="9OwBvTJ7RTWJVoX8R5Mj-23" value="UploadAvatar" style="rounded=1;whiteSpace=wrap;html=1;" vertex="1" parent="9OwBvTJ7RTWJVoX8R5Mj-98">
          <mxGeometry x="45" y="160" width="225" height="20" as="geometry" />
        </mxCell>
        <mxCell id="9OwBvTJ7RTWJVoX8R5Mj-26" value="UnsubscribeToOtherUsers" style="rounded=1;whiteSpace=wrap;html=1;container=0;" vertex="1" parent="9OwBvTJ7RTWJVoX8R5Mj-98">
          <mxGeometry x="45" y="130" width="225" height="20" as="geometry" />
        </mxCell>
        <mxCell id="9OwBvTJ7RTWJVoX8R5Mj-148" style="edgeStyle=orthogonalEdgeStyle;rounded=0;orthogonalLoop=1;jettySize=auto;html=1;exitX=0.5;exitY=0;exitDx=0;exitDy=0;entryX=0.5;entryY=1;entryDx=0;entryDy=0;" edge="1" parent="1" source="9OwBvTJ7RTWJVoX8R5Mj-32" target="9OwBvTJ7RTWJVoX8R5Mj-17">
          <mxGeometry relative="1" as="geometry" />
        </mxCell>
        <mxCell id="9OwBvTJ7RTWJVoX8R5Mj-150" style="edgeStyle=orthogonalEdgeStyle;rounded=0;orthogonalLoop=1;jettySize=auto;html=1;exitX=1;exitY=1;exitDx=0;exitDy=0;entryX=1.003;entryY=0.09;entryDx=0;entryDy=0;entryPerimeter=0;" edge="1" parent="1" source="9OwBvTJ7RTWJVoX8R5Mj-32" target="9OwBvTJ7RTWJVoX8R5Mj-70">
          <mxGeometry relative="1" as="geometry">
            <Array as="points">
              <mxPoint x="980" y="610" />
              <mxPoint x="980" y="865" />
            </Array>
          </mxGeometry>
        </mxCell>
        <mxCell id="9OwBvTJ7RTWJVoX8R5Mj-32" value="" style="rounded=1;whiteSpace=wrap;html=1;dashed=1;" vertex="1" parent="1">
          <mxGeometry x="530" y="500" width="390" height="110" as="geometry" />
        </mxCell>
        <mxCell id="9OwBvTJ7RTWJVoX8R5Mj-33" value="Likes" style="swimlane;" vertex="1" parent="1">
          <mxGeometry x="550" y="510" width="240" height="90" as="geometry" />
        </mxCell>
        <mxCell id="9OwBvTJ7RTWJVoX8R5Mj-46" value="PostLike" style="rounded=1;whiteSpace=wrap;html=1;" vertex="1" parent="9OwBvTJ7RTWJVoX8R5Mj-33">
          <mxGeometry x="5" y="30" width="225" height="20" as="geometry" />
        </mxCell>
        <mxCell id="9OwBvTJ7RTWJVoX8R5Mj-47" value="DeleteLike" style="rounded=1;whiteSpace=wrap;html=1;" vertex="1" parent="9OwBvTJ7RTWJVoX8R5Mj-33">
          <mxGeometry x="5" y="60" width="225" height="20" as="geometry" />
        </mxCell>
        <mxCell id="9OwBvTJ7RTWJVoX8R5Mj-42" value="" style="endArrow=classic;html=1;rounded=0;" edge="1" parent="1">
          <mxGeometry width="50" height="50" relative="1" as="geometry">
            <mxPoint x="835" y="560" as="sourcePoint" />
            <mxPoint x="805" y="560" as="targetPoint" />
          </mxGeometry>
        </mxCell>
        <mxCell id="9OwBvTJ7RTWJVoX8R5Mj-43" value="" style="shape=cylinder3;whiteSpace=wrap;html=1;boundedLbl=1;backgroundOutline=1;size=15;" vertex="1" parent="1">
          <mxGeometry x="845" y="510" width="50" height="70" as="geometry" />
        </mxCell>
        <mxCell id="9OwBvTJ7RTWJVoX8R5Mj-44" value="MongoDB" style="text;html=1;strokeColor=none;fillColor=none;align=center;verticalAlign=middle;whiteSpace=wrap;rounded=0;" vertex="1" parent="1">
          <mxGeometry x="840" y="570" width="60" height="35" as="geometry" />
        </mxCell>
        <mxCell id="9OwBvTJ7RTWJVoX8R5Mj-45" value="" style="endArrow=classic;html=1;rounded=0;" edge="1" parent="1">
          <mxGeometry width="50" height="50" relative="1" as="geometry">
            <mxPoint x="805" y="544.5" as="sourcePoint" />
            <mxPoint x="835" y="544.5" as="targetPoint" />
            <Array as="points">
              <mxPoint x="815" y="544.5" />
            </Array>
          </mxGeometry>
        </mxCell>
        <mxCell id="9OwBvTJ7RTWJVoX8R5Mj-146" style="edgeStyle=orthogonalEdgeStyle;rounded=0;orthogonalLoop=1;jettySize=auto;html=1;exitX=1;exitY=0.5;exitDx=0;exitDy=0;" edge="1" parent="1" source="9OwBvTJ7RTWJVoX8R5Mj-49">
          <mxGeometry relative="1" as="geometry">
            <mxPoint x="920" y="400" as="targetPoint" />
            <Array as="points">
              <mxPoint x="1010" y="720" />
              <mxPoint x="1010" y="400" />
            </Array>
          </mxGeometry>
        </mxCell>
        <mxCell id="9OwBvTJ7RTWJVoX8R5Mj-147" style="edgeStyle=orthogonalEdgeStyle;rounded=0;orthogonalLoop=1;jettySize=auto;html=1;exitX=0.976;exitY=1.002;exitDx=0;exitDy=0;entryX=1;entryY=0.25;entryDx=0;entryDy=0;exitPerimeter=0;" edge="1" parent="1" source="9OwBvTJ7RTWJVoX8R5Mj-49" target="9OwBvTJ7RTWJVoX8R5Mj-116">
          <mxGeometry relative="1" as="geometry">
            <Array as="points">
              <mxPoint x="1030" y="790" />
              <mxPoint x="1030" y="1493" />
            </Array>
          </mxGeometry>
        </mxCell>
        <mxCell id="9OwBvTJ7RTWJVoX8R5Mj-49" value="" style="rounded=1;whiteSpace=wrap;html=1;dashed=1;" vertex="1" parent="1">
          <mxGeometry x="530" y="650" width="390" height="140" as="geometry" />
        </mxCell>
        <mxCell id="9OwBvTJ7RTWJVoX8R5Mj-50" value="Comment" style="swimlane;" vertex="1" parent="1">
          <mxGeometry x="550" y="662.5" width="240" height="115" as="geometry" />
        </mxCell>
        <mxCell id="9OwBvTJ7RTWJVoX8R5Mj-51" value="PostComment" style="rounded=1;whiteSpace=wrap;html=1;" vertex="1" parent="9OwBvTJ7RTWJVoX8R5Mj-50">
          <mxGeometry x="5" y="30" width="225" height="20" as="geometry" />
        </mxCell>
        <mxCell id="9OwBvTJ7RTWJVoX8R5Mj-52" value="DeleteonComment" style="rounded=1;whiteSpace=wrap;html=1;" vertex="1" parent="9OwBvTJ7RTWJVoX8R5Mj-50">
          <mxGeometry x="5" y="55" width="225" height="20" as="geometry" />
        </mxCell>
        <mxCell id="9OwBvTJ7RTWJVoX8R5Mj-53" value="GetComments" style="rounded=1;whiteSpace=wrap;html=1;" vertex="1" parent="9OwBvTJ7RTWJVoX8R5Mj-50">
          <mxGeometry x="5" y="80" width="225" height="20" as="geometry" />
        </mxCell>
        <mxCell id="9OwBvTJ7RTWJVoX8R5Mj-54" value="" style="endArrow=classic;html=1;rounded=0;" edge="1" parent="1">
          <mxGeometry width="50" height="50" relative="1" as="geometry">
            <mxPoint x="840" y="725" as="sourcePoint" />
            <mxPoint x="810" y="725" as="targetPoint" />
          </mxGeometry>
        </mxCell>
        <mxCell id="9OwBvTJ7RTWJVoX8R5Mj-55" value="" style="shape=cylinder3;whiteSpace=wrap;html=1;boundedLbl=1;backgroundOutline=1;size=15;" vertex="1" parent="1">
          <mxGeometry x="850" y="675" width="50" height="70" as="geometry" />
        </mxCell>
        <mxCell id="9OwBvTJ7RTWJVoX8R5Mj-56" value="" style="endArrow=classic;html=1;rounded=0;" edge="1" parent="1">
          <mxGeometry width="50" height="50" relative="1" as="geometry">
            <mxPoint x="810" y="709.5" as="sourcePoint" />
            <mxPoint x="840" y="709.5" as="targetPoint" />
            <Array as="points">
              <mxPoint x="820" y="709.5" />
            </Array>
          </mxGeometry>
        </mxCell>
        <mxCell id="9OwBvTJ7RTWJVoX8R5Mj-57" value="MongoDB" style="text;html=1;strokeColor=none;fillColor=none;align=center;verticalAlign=middle;whiteSpace=wrap;rounded=0;" vertex="1" parent="1">
          <mxGeometry x="845" y="745" width="59.99999999999999" height="30" as="geometry" />
        </mxCell>
        <mxCell id="9OwBvTJ7RTWJVoX8R5Mj-103" style="edgeStyle=orthogonalEdgeStyle;rounded=0;orthogonalLoop=1;jettySize=auto;html=1;exitX=0.5;exitY=1;exitDx=0;exitDy=0;" edge="1" parent="1" source="9OwBvTJ7RTWJVoX8R5Mj-49" target="9OwBvTJ7RTWJVoX8R5Mj-49">
          <mxGeometry relative="1" as="geometry" />
        </mxCell>
        <mxCell id="9OwBvTJ7RTWJVoX8R5Mj-141" style="edgeStyle=orthogonalEdgeStyle;rounded=0;orthogonalLoop=1;jettySize=auto;html=1;exitX=1;exitY=0.25;exitDx=0;exitDy=0;entryX=1;entryY=0.5;entryDx=0;entryDy=0;" edge="1" parent="1" source="9OwBvTJ7RTWJVoX8R5Mj-70" target="9OwBvTJ7RTWJVoX8R5Mj-17">
          <mxGeometry relative="1" as="geometry">
            <Array as="points">
              <mxPoint x="1100" y="928" />
              <mxPoint x="1100" y="360" />
            </Array>
          </mxGeometry>
        </mxCell>
        <mxCell id="9OwBvTJ7RTWJVoX8R5Mj-142" style="edgeStyle=orthogonalEdgeStyle;rounded=0;orthogonalLoop=1;jettySize=auto;html=1;exitX=0.5;exitY=0;exitDx=0;exitDy=0;entryX=0.5;entryY=1;entryDx=0;entryDy=0;" edge="1" parent="1" source="9OwBvTJ7RTWJVoX8R5Mj-70" target="9OwBvTJ7RTWJVoX8R5Mj-49">
          <mxGeometry relative="1" as="geometry" />
        </mxCell>
        <mxCell id="9OwBvTJ7RTWJVoX8R5Mj-145" style="edgeStyle=orthogonalEdgeStyle;rounded=0;orthogonalLoop=1;jettySize=auto;html=1;exitX=1.007;exitY=0.158;exitDx=0;exitDy=0;entryX=1;entryY=0.75;entryDx=0;entryDy=0;exitPerimeter=0;" edge="1" parent="1" source="9OwBvTJ7RTWJVoX8R5Mj-70" target="9OwBvTJ7RTWJVoX8R5Mj-32">
          <mxGeometry relative="1" as="geometry">
            <Array as="points">
              <mxPoint x="1060" y="892" />
              <mxPoint x="1060" y="582" />
            </Array>
          </mxGeometry>
        </mxCell>
        <mxCell id="9OwBvTJ7RTWJVoX8R5Mj-151" style="edgeStyle=orthogonalEdgeStyle;rounded=0;orthogonalLoop=1;jettySize=auto;html=1;exitX=1;exitY=0.75;exitDx=0;exitDy=0;entryX=0.75;entryY=0;entryDx=0;entryDy=0;" edge="1" parent="1" source="9OwBvTJ7RTWJVoX8R5Mj-70" target="9OwBvTJ7RTWJVoX8R5Mj-116">
          <mxGeometry relative="1" as="geometry">
            <mxPoint x="920" y="1460" as="targetPoint" />
            <Array as="points">
              <mxPoint x="980" y="1122" />
              <mxPoint x="980" y="1430" />
              <mxPoint x="823" y="1430" />
            </Array>
          </mxGeometry>
        </mxCell>
        <mxCell id="9OwBvTJ7RTWJVoX8R5Mj-70" value="" style="rounded=1;whiteSpace=wrap;html=1;dashed=1;" vertex="1" parent="1">
          <mxGeometry x="530" y="830" width="390" height="390" as="geometry" />
        </mxCell>
        <mxCell id="9OwBvTJ7RTWJVoX8R5Mj-71" value="Post" style="swimlane;" vertex="1" parent="1">
          <mxGeometry x="550" y="855" width="240" height="340" as="geometry" />
        </mxCell>
        <mxCell id="9OwBvTJ7RTWJVoX8R5Mj-85" value="GettingPostsUsingSorting" style="rounded=1;whiteSpace=wrap;html=1;" vertex="1" parent="9OwBvTJ7RTWJVoX8R5Mj-71">
          <mxGeometry x="10" y="185" width="220" height="20" as="geometry" />
        </mxCell>
        <mxCell id="9OwBvTJ7RTWJVoX8R5Mj-89" value="GettingPostsForOtherUser" style="rounded=1;whiteSpace=wrap;html=1;" vertex="1" parent="9OwBvTJ7RTWJVoX8R5Mj-71">
          <mxGeometry x="10" y="235" width="220" height="20" as="geometry" />
        </mxCell>
        <mxCell id="9OwBvTJ7RTWJVoX8R5Mj-72" value="CreatePost" style="rounded=1;whiteSpace=wrap;html=1;" vertex="1" parent="1">
          <mxGeometry x="560" y="890" width="220" height="20" as="geometry" />
        </mxCell>
        <mxCell id="9OwBvTJ7RTWJVoX8R5Mj-73" value="ShowPostDetails" style="rounded=1;whiteSpace=wrap;html=1;" vertex="1" parent="1">
          <mxGeometry x="560" y="915" width="220" height="20" as="geometry" />
        </mxCell>
        <mxCell id="9OwBvTJ7RTWJVoX8R5Mj-74" value="" style="endArrow=classic;html=1;rounded=0;" edge="1" parent="1">
          <mxGeometry width="50" height="50" relative="1" as="geometry">
            <mxPoint x="835" y="1040" as="sourcePoint" />
            <mxPoint x="805" y="1040" as="targetPoint" />
          </mxGeometry>
        </mxCell>
        <mxCell id="9OwBvTJ7RTWJVoX8R5Mj-75" value="" style="shape=cylinder3;whiteSpace=wrap;html=1;boundedLbl=1;backgroundOutline=1;size=15;" vertex="1" parent="1">
          <mxGeometry x="845" y="990" width="50" height="70" as="geometry" />
        </mxCell>
        <mxCell id="9OwBvTJ7RTWJVoX8R5Mj-76" value="" style="endArrow=classic;html=1;rounded=0;" edge="1" parent="1">
          <mxGeometry width="50" height="50" relative="1" as="geometry">
            <mxPoint x="805" y="1024.5" as="sourcePoint" />
            <mxPoint x="835" y="1024.5" as="targetPoint" />
            <Array as="points">
              <mxPoint x="815" y="1024.5" />
            </Array>
          </mxGeometry>
        </mxCell>
        <mxCell id="9OwBvTJ7RTWJVoX8R5Mj-77" value="MongoDB" style="text;html=1;strokeColor=none;fillColor=none;align=center;verticalAlign=middle;whiteSpace=wrap;rounded=0;" vertex="1" parent="1">
          <mxGeometry x="840" y="1060" width="60" height="30" as="geometry" />
        </mxCell>
        <mxCell id="9OwBvTJ7RTWJVoX8R5Mj-78" value="EditingPost" style="rounded=1;whiteSpace=wrap;html=1;" vertex="1" parent="1">
          <mxGeometry x="560" y="940" width="220" height="20" as="geometry" />
        </mxCell>
        <mxCell id="9OwBvTJ7RTWJVoX8R5Mj-79" value="DeletionPost" style="rounded=1;whiteSpace=wrap;html=1;" vertex="1" parent="1">
          <mxGeometry x="560" y="965" width="220" height="20" as="geometry" />
        </mxCell>
        <mxCell id="9OwBvTJ7RTWJVoX8R5Mj-80" value="UploadImages" style="rounded=1;whiteSpace=wrap;html=1;" vertex="1" parent="1">
          <mxGeometry x="560" y="990" width="220" height="20" as="geometry" />
        </mxCell>
        <mxCell id="9OwBvTJ7RTWJVoX8R5Mj-84" value="GettingPosts" style="rounded=1;whiteSpace=wrap;html=1;" vertex="1" parent="1">
          <mxGeometry x="560" y="1015" width="220" height="20" as="geometry" />
        </mxCell>
        <mxCell id="9OwBvTJ7RTWJVoX8R5Mj-86" value="RepostOfPosts" style="rounded=1;whiteSpace=wrap;html=1;" vertex="1" parent="1">
          <mxGeometry x="560" y="1065" width="220" height="20" as="geometry" />
        </mxCell>
        <mxCell id="9OwBvTJ7RTWJVoX8R5Mj-87" value="GettingPostsByTags" style="rounded=1;whiteSpace=wrap;html=1;" vertex="1" parent="1">
          <mxGeometry x="560" y="1115" width="220" height="20" as="geometry" />
        </mxCell>
        <mxCell id="9OwBvTJ7RTWJVoX8R5Mj-90" value="GettingDraft" style="rounded=1;whiteSpace=wrap;html=1;" vertex="1" parent="1">
          <mxGeometry x="560" y="1140" width="220" height="20" as="geometry" />
        </mxCell>
        <mxCell id="9OwBvTJ7RTWJVoX8R5Mj-91" value="GettingPostsByType" style="rounded=1;whiteSpace=wrap;html=1;" vertex="1" parent="1">
          <mxGeometry x="560" y="1170" width="220" height="20" as="geometry" />
        </mxCell>
        <mxCell id="9OwBvTJ7RTWJVoX8R5Mj-105" value="" style="group" vertex="1" connectable="0" parent="1">
          <mxGeometry x="530" y="1270" width="390" height="130" as="geometry" />
        </mxCell>
        <mxCell id="9OwBvTJ7RTWJVoX8R5Mj-60" value="" style="rounded=1;whiteSpace=wrap;html=1;dashed=1;" vertex="1" parent="9OwBvTJ7RTWJVoX8R5Mj-105">
          <mxGeometry width="390" height="130" as="geometry" />
        </mxCell>
        <mxCell id="9OwBvTJ7RTWJVoX8R5Mj-61" value="Search" style="swimlane;" vertex="1" parent="9OwBvTJ7RTWJVoX8R5Mj-105">
          <mxGeometry x="20" y="17.5" width="240" height="62.5" as="geometry" />
        </mxCell>
        <mxCell id="9OwBvTJ7RTWJVoX8R5Mj-62" value="SearchPostByTitle" style="rounded=1;whiteSpace=wrap;html=1;" vertex="1" parent="9OwBvTJ7RTWJVoX8R5Mj-61">
          <mxGeometry x="5" y="30" width="225" height="20" as="geometry" />
        </mxCell>
        <mxCell id="9OwBvTJ7RTWJVoX8R5Mj-65" value="" style="endArrow=classic;html=1;rounded=0;" edge="1" parent="9OwBvTJ7RTWJVoX8R5Mj-105">
          <mxGeometry width="50" height="50" relative="1" as="geometry">
            <mxPoint x="300" y="75" as="sourcePoint" />
            <mxPoint x="270" y="75" as="targetPoint" />
          </mxGeometry>
        </mxCell>
        <mxCell id="9OwBvTJ7RTWJVoX8R5Mj-66" value="" style="shape=cylinder3;whiteSpace=wrap;html=1;boundedLbl=1;backgroundOutline=1;size=15;" vertex="1" parent="9OwBvTJ7RTWJVoX8R5Mj-105">
          <mxGeometry x="310" y="25" width="50" height="70" as="geometry" />
        </mxCell>
        <mxCell id="9OwBvTJ7RTWJVoX8R5Mj-67" value="" style="endArrow=classic;html=1;rounded=0;" edge="1" parent="9OwBvTJ7RTWJVoX8R5Mj-105">
          <mxGeometry width="50" height="50" relative="1" as="geometry">
            <mxPoint x="270" y="59.5" as="sourcePoint" />
            <mxPoint x="300" y="59.5" as="targetPoint" />
            <Array as="points">
              <mxPoint x="280" y="59.5" />
            </Array>
          </mxGeometry>
        </mxCell>
        <mxCell id="9OwBvTJ7RTWJVoX8R5Mj-68" value="MongoDB" style="text;html=1;strokeColor=none;fillColor=none;align=center;verticalAlign=middle;whiteSpace=wrap;rounded=0;" vertex="1" parent="9OwBvTJ7RTWJVoX8R5Mj-105">
          <mxGeometry x="305" y="95" width="60" height="30" as="geometry" />
        </mxCell>
        <mxCell id="9OwBvTJ7RTWJVoX8R5Mj-104" style="edgeStyle=orthogonalEdgeStyle;rounded=0;orthogonalLoop=1;jettySize=auto;html=1;exitX=0.5;exitY=1;exitDx=0;exitDy=0;" edge="1" parent="9OwBvTJ7RTWJVoX8R5Mj-105" source="9OwBvTJ7RTWJVoX8R5Mj-60" target="9OwBvTJ7RTWJVoX8R5Mj-60">
          <mxGeometry relative="1" as="geometry" />
        </mxCell>
        <mxCell id="9OwBvTJ7RTWJVoX8R5Mj-107" value="" style="group" vertex="1" connectable="0" parent="1">
          <mxGeometry x="220" y="570" width="150" height="80" as="geometry" />
        </mxCell>
        <mxCell id="V9B4uRtNzhAgs2MjrMtX-8" value="" style="rounded=1;whiteSpace=wrap;html=1;dashed=1;strokeColor=default;" parent="9OwBvTJ7RTWJVoX8R5Mj-107" vertex="1">
          <mxGeometry width="150" height="80" as="geometry" />
        </mxCell>
        <mxCell id="V9B4uRtNzhAgs2MjrMtX-7" value="" style="rounded=0;whiteSpace=wrap;html=1;perimeterSpacing=0;" parent="9OwBvTJ7RTWJVoX8R5Mj-107" vertex="1">
          <mxGeometry x="15" y="10" width="120" height="60" as="geometry" />
        </mxCell>
        <mxCell id="V9B4uRtNzhAgs2MjrMtX-9" value="API GATEWAY" style="text;html=1;strokeColor=none;fillColor=none;align=center;verticalAlign=middle;whiteSpace=wrap;rounded=0;" parent="9OwBvTJ7RTWJVoX8R5Mj-107" vertex="1">
          <mxGeometry x="15" y="25" width="110" height="30" as="geometry" />
        </mxCell>
        <mxCell id="9OwBvTJ7RTWJVoX8R5Mj-108" style="edgeStyle=orthogonalEdgeStyle;rounded=0;orthogonalLoop=1;jettySize=auto;html=1;exitX=0.5;exitY=0;exitDx=0;exitDy=0;entryX=0;entryY=0.5;entryDx=0;entryDy=0;" edge="1" parent="1" source="V9B4uRtNzhAgs2MjrMtX-8" target="9OwBvTJ7RTWJVoX8R5Mj-2">
          <mxGeometry relative="1" as="geometry" />
        </mxCell>
        <mxCell id="9OwBvTJ7RTWJVoX8R5Mj-109" style="edgeStyle=orthogonalEdgeStyle;rounded=0;orthogonalLoop=1;jettySize=auto;html=1;exitX=0.75;exitY=0;exitDx=0;exitDy=0;entryX=0;entryY=0.5;entryDx=0;entryDy=0;" edge="1" parent="1" source="V9B4uRtNzhAgs2MjrMtX-8" target="9OwBvTJ7RTWJVoX8R5Mj-17">
          <mxGeometry relative="1" as="geometry" />
        </mxCell>
        <mxCell id="9OwBvTJ7RTWJVoX8R5Mj-110" style="edgeStyle=orthogonalEdgeStyle;rounded=0;orthogonalLoop=1;jettySize=auto;html=1;exitX=1;exitY=0.5;exitDx=0;exitDy=0;entryX=0;entryY=0.5;entryDx=0;entryDy=0;" edge="1" parent="1" source="V9B4uRtNzhAgs2MjrMtX-8" target="9OwBvTJ7RTWJVoX8R5Mj-32">
          <mxGeometry relative="1" as="geometry" />
        </mxCell>
        <mxCell id="9OwBvTJ7RTWJVoX8R5Mj-111" style="edgeStyle=orthogonalEdgeStyle;rounded=0;orthogonalLoop=1;jettySize=auto;html=1;exitX=0.75;exitY=1;exitDx=0;exitDy=0;entryX=0;entryY=0.5;entryDx=0;entryDy=0;" edge="1" parent="1" source="V9B4uRtNzhAgs2MjrMtX-8" target="9OwBvTJ7RTWJVoX8R5Mj-49">
          <mxGeometry relative="1" as="geometry" />
        </mxCell>
        <mxCell id="9OwBvTJ7RTWJVoX8R5Mj-112" style="edgeStyle=orthogonalEdgeStyle;rounded=0;orthogonalLoop=1;jettySize=auto;html=1;exitX=0.5;exitY=1;exitDx=0;exitDy=0;entryX=0;entryY=0.75;entryDx=0;entryDy=0;" edge="1" parent="1" source="V9B4uRtNzhAgs2MjrMtX-8" target="9OwBvTJ7RTWJVoX8R5Mj-70">
          <mxGeometry relative="1" as="geometry" />
        </mxCell>
        <mxCell id="9OwBvTJ7RTWJVoX8R5Mj-113" style="edgeStyle=orthogonalEdgeStyle;rounded=0;orthogonalLoop=1;jettySize=auto;html=1;exitX=0.25;exitY=1;exitDx=0;exitDy=0;entryX=0;entryY=0.5;entryDx=0;entryDy=0;" edge="1" parent="1" source="V9B4uRtNzhAgs2MjrMtX-8" target="9OwBvTJ7RTWJVoX8R5Mj-60">
          <mxGeometry relative="1" as="geometry" />
        </mxCell>
        <mxCell id="9OwBvTJ7RTWJVoX8R5Mj-115" value="" style="group" vertex="1" connectable="0" parent="1">
          <mxGeometry x="530" y="1460" width="390" height="130" as="geometry" />
        </mxCell>
        <mxCell id="9OwBvTJ7RTWJVoX8R5Mj-116" value="" style="rounded=1;whiteSpace=wrap;html=1;dashed=1;" vertex="1" parent="9OwBvTJ7RTWJVoX8R5Mj-115">
          <mxGeometry width="390" height="130" as="geometry" />
        </mxCell>
        <mxCell id="9OwBvTJ7RTWJVoX8R5Mj-117" value="Notify" style="swimlane;" vertex="1" parent="9OwBvTJ7RTWJVoX8R5Mj-115">
          <mxGeometry x="20" y="17.5" width="240" height="62.5" as="geometry" />
        </mxCell>
        <mxCell id="9OwBvTJ7RTWJVoX8R5Mj-118" value="Email" style="rounded=1;whiteSpace=wrap;html=1;" vertex="1" parent="9OwBvTJ7RTWJVoX8R5Mj-117">
          <mxGeometry x="5" y="30" width="225" height="20" as="geometry" />
        </mxCell>
        <mxCell id="9OwBvTJ7RTWJVoX8R5Mj-119" value="" style="endArrow=classic;html=1;rounded=0;" edge="1" parent="9OwBvTJ7RTWJVoX8R5Mj-115">
          <mxGeometry width="50" height="50" relative="1" as="geometry">
            <mxPoint x="300" y="75" as="sourcePoint" />
            <mxPoint x="270" y="75" as="targetPoint" />
          </mxGeometry>
        </mxCell>
        <mxCell id="9OwBvTJ7RTWJVoX8R5Mj-120" value="" style="shape=cylinder3;whiteSpace=wrap;html=1;boundedLbl=1;backgroundOutline=1;size=15;" vertex="1" parent="9OwBvTJ7RTWJVoX8R5Mj-115">
          <mxGeometry x="310" y="25" width="50" height="70" as="geometry" />
        </mxCell>
        <mxCell id="9OwBvTJ7RTWJVoX8R5Mj-121" value="" style="endArrow=classic;html=1;rounded=0;" edge="1" parent="9OwBvTJ7RTWJVoX8R5Mj-115">
          <mxGeometry width="50" height="50" relative="1" as="geometry">
            <mxPoint x="270" y="59.5" as="sourcePoint" />
            <mxPoint x="300" y="59.5" as="targetPoint" />
            <Array as="points">
              <mxPoint x="280" y="59.5" />
            </Array>
          </mxGeometry>
        </mxCell>
        <mxCell id="9OwBvTJ7RTWJVoX8R5Mj-122" value="RabbitMQ" style="text;html=1;strokeColor=none;fillColor=none;align=center;verticalAlign=middle;whiteSpace=wrap;rounded=0;" vertex="1" parent="9OwBvTJ7RTWJVoX8R5Mj-115">
          <mxGeometry x="305" y="95" width="60" height="30" as="geometry" />
        </mxCell>
        <mxCell id="9OwBvTJ7RTWJVoX8R5Mj-123" style="edgeStyle=orthogonalEdgeStyle;rounded=0;orthogonalLoop=1;jettySize=auto;html=1;exitX=0.5;exitY=1;exitDx=0;exitDy=0;" edge="1" parent="9OwBvTJ7RTWJVoX8R5Mj-115" source="9OwBvTJ7RTWJVoX8R5Mj-116" target="9OwBvTJ7RTWJVoX8R5Mj-116">
          <mxGeometry relative="1" as="geometry" />
        </mxCell>
        <mxCell id="9OwBvTJ7RTWJVoX8R5Mj-126" style="edgeStyle=orthogonalEdgeStyle;rounded=0;orthogonalLoop=1;jettySize=auto;html=1;exitX=1;exitY=0.75;exitDx=0;exitDy=0;entryX=1;entryY=0.5;entryDx=0;entryDy=0;" edge="1" parent="1" source="9OwBvTJ7RTWJVoX8R5Mj-2" target="9OwBvTJ7RTWJVoX8R5Mj-32">
          <mxGeometry relative="1" as="geometry">
            <Array as="points">
              <mxPoint x="1180" y="176" />
              <mxPoint x="1180" y="556" />
              <mxPoint x="920" y="556" />
            </Array>
          </mxGeometry>
        </mxCell>
        <mxCell id="9OwBvTJ7RTWJVoX8R5Mj-127" style="edgeStyle=orthogonalEdgeStyle;rounded=0;orthogonalLoop=1;jettySize=auto;html=1;exitX=1;exitY=0.5;exitDx=0;exitDy=0;entryX=1;entryY=0.75;entryDx=0;entryDy=0;" edge="1" parent="1" source="9OwBvTJ7RTWJVoX8R5Mj-2" target="9OwBvTJ7RTWJVoX8R5Mj-49">
          <mxGeometry relative="1" as="geometry">
            <Array as="points">
              <mxPoint x="1220" y="140" />
              <mxPoint x="1220" y="750" />
              <mxPoint x="920" y="750" />
            </Array>
          </mxGeometry>
        </mxCell>
        <mxCell id="9OwBvTJ7RTWJVoX8R5Mj-129" style="edgeStyle=orthogonalEdgeStyle;rounded=0;orthogonalLoop=1;jettySize=auto;html=1;exitX=1;exitY=0.25;exitDx=0;exitDy=0;entryX=1;entryY=0.5;entryDx=0;entryDy=0;" edge="1" parent="1" source="9OwBvTJ7RTWJVoX8R5Mj-2" target="9OwBvTJ7RTWJVoX8R5Mj-70">
          <mxGeometry relative="1" as="geometry">
            <Array as="points">
              <mxPoint x="1260" y="105" />
              <mxPoint x="1260" y="1025" />
            </Array>
          </mxGeometry>
        </mxCell>
        <mxCell id="9OwBvTJ7RTWJVoX8R5Mj-131" style="edgeStyle=orthogonalEdgeStyle;rounded=0;orthogonalLoop=1;jettySize=auto;html=1;exitX=1;exitY=0;exitDx=0;exitDy=0;entryX=1;entryY=0.5;entryDx=0;entryDy=0;" edge="1" parent="1" source="9OwBvTJ7RTWJVoX8R5Mj-2" target="9OwBvTJ7RTWJVoX8R5Mj-60">
          <mxGeometry relative="1" as="geometry">
            <Array as="points">
              <mxPoint x="920" y="50" />
              <mxPoint x="1300" y="50" />
              <mxPoint x="1300" y="1335" />
            </Array>
          </mxGeometry>
        </mxCell>
        <mxCell id="9OwBvTJ7RTWJVoX8R5Mj-132" style="edgeStyle=orthogonalEdgeStyle;rounded=0;orthogonalLoop=1;jettySize=auto;html=1;exitX=0.75;exitY=0;exitDx=0;exitDy=0;entryX=1;entryY=0.75;entryDx=0;entryDy=0;" edge="1" parent="1" source="9OwBvTJ7RTWJVoX8R5Mj-2" target="9OwBvTJ7RTWJVoX8R5Mj-116">
          <mxGeometry relative="1" as="geometry">
            <Array as="points">
              <mxPoint x="823" y="30" />
              <mxPoint x="1340" y="30" />
              <mxPoint x="1340" y="1558" />
            </Array>
          </mxGeometry>
        </mxCell>
        <mxCell id="9OwBvTJ7RTWJVoX8R5Mj-134" style="edgeStyle=orthogonalEdgeStyle;rounded=0;orthogonalLoop=1;jettySize=auto;html=1;exitX=1;exitY=1;exitDx=0;exitDy=0;entryX=1;entryY=0.25;entryDx=0;entryDy=0;" edge="1" parent="1" source="9OwBvTJ7RTWJVoX8R5Mj-17" target="9OwBvTJ7RTWJVoX8R5Mj-49">
          <mxGeometry relative="1" as="geometry">
            <Array as="points">
              <mxPoint x="960" y="460" />
              <mxPoint x="960" y="685" />
            </Array>
          </mxGeometry>
        </mxCell>
        <mxCell id="9OwBvTJ7RTWJVoX8R5Mj-138" style="edgeStyle=orthogonalEdgeStyle;rounded=0;orthogonalLoop=1;jettySize=auto;html=1;exitX=1;exitY=0.25;exitDx=0;exitDy=0;" edge="1" parent="1" source="9OwBvTJ7RTWJVoX8R5Mj-17">
          <mxGeometry relative="1" as="geometry">
            <mxPoint x="920" y="1520" as="targetPoint" />
            <Array as="points">
              <mxPoint x="1140" y="310" />
              <mxPoint x="1140" y="1520" />
            </Array>
          </mxGeometry>
        </mxCell>
        <mxCell id="9OwBvTJ7RTWJVoX8R5Mj-139" style="edgeStyle=orthogonalEdgeStyle;rounded=0;orthogonalLoop=1;jettySize=auto;html=1;exitX=0.5;exitY=0;exitDx=0;exitDy=0;entryX=0.5;entryY=1;entryDx=0;entryDy=0;" edge="1" parent="1" source="9OwBvTJ7RTWJVoX8R5Mj-17" target="9OwBvTJ7RTWJVoX8R5Mj-2">
          <mxGeometry relative="1" as="geometry" />
        </mxCell>
        <mxCell id="9OwBvTJ7RTWJVoX8R5Mj-140" style="edgeStyle=orthogonalEdgeStyle;rounded=0;orthogonalLoop=1;jettySize=auto;html=1;exitX=0.25;exitY=1;exitDx=0;exitDy=0;entryX=0.25;entryY=0;entryDx=0;entryDy=0;" edge="1" parent="1" source="9OwBvTJ7RTWJVoX8R5Mj-2" target="9OwBvTJ7RTWJVoX8R5Mj-17">
          <mxGeometry relative="1" as="geometry" />
        </mxCell>
      </root>
    </mxGraphModel>
  </diagram>
</mxfile>
